HIERARCHY
ROOT Pelvis
{
	OFFSET 0.020139 0.929156 0.030599
	CHANNELS 6 Xposition Yposition Zposition Zrotation Yrotation Xrotation 
	JOINT L_Hip
	{
		OFFSET 0.054449 -0.084189 -0.011329
		CHANNELS 3 Zrotation Yrotation Xrotation
		JOINT L_Knee
		{
			OFFSET 0.011888 -0.394484 -0.012914
			CHANNELS 3 Zrotation Yrotation Xrotation
			JOINT L_Ankle
			{
				OFFSET -0.083287 -0.416902 -0.054160
				CHANNELS 3 Zrotation Yrotation Xrotation
				End Site #name: L_Foot
				{
					OFFSET 0.085461 -0.029440 0.110041
				}
			}
		}
	}
	JOINT R_Hip
	{
		OFFSET -0.059257 -0.090628 -0.002796
		CHANNELS 3 Zrotation Yrotation Xrotation
		JOINT R_Knee
		{
			OFFSET -0.055229 -0.375684 0.086271
			CHANNELS 3 Zrotation Yrotation Xrotation
			JOINT R_Ankle
			{
				OFFSET 0.018580 -0.376637 -0.195437
				CHANNELS 3 Zrotation Yrotation Xrotation
				End Site #name: R_Foot
				{
					OFFSET -0.076367 -0.071718 0.107304
				}
			}
		}
	}
	JOINT Spine1
	{
		OFFSET 0.001781 0.125214 -0.045297
		CHANNELS 3 Zrotation Yrotation Xrotation
		JOINT Spine2
		{
			OFFSET 0.012970 0.140736 0.027310
			CHANNELS 3 Zrotation Yrotation Xrotation
			JOINT Spine3
			{
				OFFSET -0.000551 0.057577 0.006221
				CHANNELS 3 Zrotation Yrotation Xrotation
				JOINT Neck
				{
					OFFSET 0.001956 0.217733 -0.010899
					CHANNELS 3 Zrotation Yrotation Xrotation
					End Site #name: Head
					{
						OFFSET 0.004417 0.088093 0.056627
					}
				}
				JOINT L_Collar
				{
					OFFSET 0.077036 0.111749 -0.008130
					CHANNELS 3 Zrotation Yrotation Xrotation
					JOINT L_Shoulder
					{
						OFFSET 0.129713 -0.017363 -0.014088
						CHANNELS 3 Zrotation Yrotation Xrotation
						JOINT L_Elbow
						{
							OFFSET -0.004351 -0.255949 -0.041247
							CHANNELS 3 Zrotation Yrotation Xrotation
							End Site #name: L_Wrist
							{
								OFFSET 0.037420 -0.244883 0.090666
							}
						}
					}
				}
				JOINT R_Collar
				{
					OFFSET -0.074679 0.119376 -0.014605
					CHANNELS 3 Zrotation Yrotation Xrotation
					JOINT R_Shoulder
					{
						OFFSET -0.121114 0.006961 -0.005321
						CHANNELS 3 Zrotation Yrotation Xrotation
						JOINT R_Elbow
						{
							OFFSET -0.025268 -0.253943 -0.059988
							CHANNELS 3 Zrotation Yrotation Xrotation
							End Site #name: R_Wrist
							{
								OFFSET -0.053568 -0.245871 0.093654
							}
						}
					}
				}
			}
		}
	}
}
MOTION
Frames: 11
Frame Time: 0.041667
0.129245 0.932529 1.995454 2.429681 -0.797120 -1.183568 -0.485335 -0.538430 -16.091238 1.056725 0.414386 -2.641409 -7.292694 2.012389 9.949538 5.035400 -3.161405 22.969334 -3.037296 0.447310 -14.430715 0.125463 8.223180 -6.843290 1.271666 0.313429 -5.446213 -3.115225 0.434700 2.633607 0.113259 0.062587 1.251045 -1.955643 1.273733 -0.681095 -3.987813 -1.844185 -0.614157 1.958013 -0.334948 0.557905 5.041805 1.516974 -3.277995 0.444787 5.238045 0.302752 -1.033140 0.665133 -4.729045 2.099171 0.550184 1.057399 
0.138636 0.938556 2.036665 3.361945 -0.745666 -0.471928 -1.903425 -0.598961 -14.119306 0.552982 0.468673 -2.645969 -7.723771 1.443279 10.260302 2.971066 -3.108789 22.385634 -2.732689 0.612152 -10.591929 3.513031 7.861135 -1.968056 0.465754 0.594618 -7.182452 -3.511796 0.520349 3.453122 0.294138 0.069326 0.937204 -2.641824 1.704846 -0.483311 -4.032005 -1.632854 -0.597296 2.052580 -0.370055 1.104221 5.517629 1.789236 -2.446716 0.359600 4.485078 0.256687 -0.172109 0.332943 -3.003335 1.484714 0.181628 1.661099 
0.148568 0.942219 2.075934 4.332778 -0.746511 -0.274665 -3.429595 -0.563124 -11.229060 0.413525 0.578912 -3.117774 -6.824222 0.930428 8.953751 0.699208 -2.926016 20.719913 -2.206506 0.815546 -4.567260 8.023298 6.783352 4.688302 -0.352055 0.770522 -7.989136 -3.619788 0.514201 2.947670 0.278653 0.124843 1.343148 -2.995189 1.922887 0.012927 -3.949404 -0.729716 -0.499662 2.585632 -0.454698 0.939435 4.826095 1.638383 -1.317388 -0.450564 4.334363 0.252348 0.804738 -0.060039 -1.219906 1.820604 0.142053 2.356231 
0.157933 0.940258 2.113884 5.092345 -0.663022 -0.382226 -4.613964 -0.431277 -8.262930 0.093045 0.647656 -3.299709 -5.259287 0.566510 6.872571 -1.820243 -2.596179 17.218997 -0.545171 0.552777 4.763905 12.335185 3.397531 12.697681 -0.780055 0.830151 -8.078947 -3.659034 0.522842 3.027544 0.268325 0.065647 1.169409 -3.381800 2.171135 -0.016788 -4.098357 -0.787451 -0.520429 3.246875 -0.555048 0.680802 4.309104 1.473806 -1.030491 -1.024434 4.512709 0.264473 1.006769 -0.234243 -0.034886 2.167843 0.346384 2.020834 
0.166722 0.937337 2.144764 5.389465 -0.572600 -0.955839 -5.041855 -0.241323 -5.477581 -0.484472 0.670636 -3.121943 -4.098438 -0.220962 5.131809 -3.318848 -2.166069 12.381306 1.023537 0.121549 15.837795 12.884284 -1.721848 17.921147 -0.863566 0.724196 -6.672999 -3.130653 0.439775 2.714975 -0.570173 -0.095084 0.956806 -2.991996 1.922155 -0.086662 -4.237363 -1.937960 -0.646134 3.896976 -0.634993 0.122872 4.589670 1.593781 -0.897366 -0.539294 4.455649 0.259309 0.358933 -0.094192 0.091143 2.293799 0.478434 1.659704 
0.173706 0.936881 2.174664 5.406877 -0.453474 -1.696172 -5.293000 -0.030785 -2.673295 -0.649907 0.642566 -2.889435 -2.885771 -0.673599 3.444479 -3.773283 -1.635921 7.005988 1.872997 -0.156998 24.850211 8.824365 -5.392682 16.846294 -0.557945 0.566124 -5.302706 -3.463053 0.486059 2.772382 -0.589387 -0.393043 0.772170 -2.806214 1.801672 0.011255 -4.585025 -3.509085 -0.825880 4.516020 -0.698434 -0.525580 5.091354 1.800518 -0.715539 -0.181271 4.046022 0.234550 -0.061079 0.062904 -0.490476 1.858195 0.498685 0.894751 
0.176847 0.937785 2.201070 4.923267 -0.198752 -2.688760 -4.859893 0.206302 0.644941 -0.898569 0.717633 -3.149182 -2.360058 -1.516361 2.487690 -3.007261 -0.922031 1.975011 2.303980 -0.358429 29.642621 3.011034 -7.649190 12.015554 -0.261478 0.369502 -3.571257 -3.158814 0.441466 2.661020 -0.927526 -0.628488 0.791216 -2.585315 1.664136 -0.219444 -4.823907 -5.411827 -1.020504 5.247445 -0.734115 -1.764483 5.061031 1.841805 -0.200797 0.429720 3.415931 0.190617 -0.088113 0.141335 -1.224327 0.956125 0.279792 0.373858 
0.177506 0.938846 2.223921 4.271039 0.011312 -3.340094 -4.304425 0.379573 3.510305 -0.620597 0.735423 -3.386670 -2.229755 -2.789066 1.892551 -1.856540 -0.038072 -2.968868 2.099557 -0.140241 30.509575 -1.426576 -8.774569 7.215125 0.302347 0.173052 -2.451178 -2.830889 0.398429 2.665932 -1.315598 -0.852647 0.786465 -1.980889 1.277452 -0.200960 -4.896600 -7.004374 -1.172064 5.741845 -0.730781 -2.873213 4.519110 1.628393 -0.330307 0.761401 2.904410 0.153049 -0.237657 0.195904 -1.440819 0.594389 0.444936 -0.970986 
0.179775 0.939499 2.244474 3.389962 0.182979 -3.875961 -3.451832 0.492494 6.267856 -0.387116 0.804244 -3.858174 -1.923802 -3.649271 1.223770 -0.637728 0.868690 -7.085791 1.778816 0.020529 27.306345 -3.692227 -8.025851 3.005560 0.919572 -0.047637 -1.304948 -2.438236 0.341469 2.499129 -1.575064 -0.991254 0.724261 -1.604160 1.030403 0.002440 -4.577278 -8.115860 -1.263598 5.704362 -0.664662 -3.775939 3.869377 1.279867 -1.276044 0.847595 2.495803 0.124869 -0.398801 0.240055 -1.527519 0.710850 0.658670 -1.710343 
0.182694 0.939424 2.265716 2.735902 0.289425 -4.055909 -2.973516 0.573274 8.436716 0.167054 0.839141 -4.294963 -1.391504 -3.706194 0.535116 0.433395 1.754877 -10.691094 1.198252 0.254865 21.642554 -4.502478 -6.482684 0.022537 1.258818 -0.179336 -0.629575 -2.481631 0.347587 2.513797 -0.932240 -1.057390 0.637718 -1.564442 1.002355 0.085098 -4.594224 -8.650412 -1.315376 5.201680 -0.544942 -4.655125 3.319575 0.904788 -2.650861 0.508499 2.454818 0.129824 -0.589413 0.281341 -1.516742 0.692825 0.810637 -2.407643 
0.183820 0.939046 2.292054 2.154195 0.452159 -4.017998 -2.494842 0.620692 10.312225 0.467802 0.916306 -4.811035 -0.882479 -3.474151 -0.032727 1.139733 2.381047 -13.028462 0.893269 0.109032 13.559675 -4.110547 -5.004954 -0.989348 1.541903 -0.297447 -0.020219 -2.624190 0.351989 2.082494 -0.194101 -1.062929 0.845899 -1.751192 1.126108 -0.043624 -4.438906 -8.642808 -1.309732 4.139424 -0.376608 -5.418108 2.916109 0.591113 -3.876493 0.475621 2.188833 0.114134 -0.723366 0.324261 -1.659847 0.487096 0.610457 -1.893021 
